<?xml version="1.0" encoding="UTF-8"?>
<svg width="336" height="102" version="1.1" viewBox="0 0 336 102" xmlns="http://www.w3.org/2000/svg"><g fill="#f0f0f0"><rect x="225" y="49" width="34" height="4"/><rect x="271" y="98" width="26" height="4"/><rect x="251" y="91" width="65" height="4"/><rect x="241" y="84" width="83" height="4"/><rect x="235" y="77" width="38" height="4"/><rect x="294" y="77" width="36" height="4"/><rect x="230" y="70" width="37" height="4"/><rect x="300" y="70" width="34" height="4"/><rect x="228" y="63" width="35" height="4"/><rect x="304" y="63" width="32" height="4"/><rect x="226" y="56" width="35" height="4"/><rect x="271" width="26" height="4"/><rect x="251" y="7" width="65" height="4"/><rect x="241" y="14" width="83" height="4"/><rect x="235" y="21" width="38" height="4"/><rect x="294" y="21" width="36" height="4"/><rect x="230" y="28" width="37" height="4"/><rect x="300" y="28" width="34" height="4"/><rect x="228" y="35" width="35" height="4"/><rect x="304" y="35" width="32" height="4"/><rect x="226" y="42" width="35" height="4"/><rect x="119" width="76" height="4"/><rect x="119" y="7" width="89" height="4"/><rect x="119" y="14" width="95" height="4"/><rect x="119" y="21" width="29" height="4"/><rect x="184" y="21" width="33" height="4"/><rect x="119" y="28" width="29" height="4"/><rect x="188" y="28" width="29" height="4"/><rect x="119" y="35" width="29" height="4"/><rect x="184" y="35" width="33" height="4"/><rect x="119" y="56" width="76" height="4"/><rect x="119" y="49" width="89" height="4"/><rect x="119" y="42" width="95" height="4"/><rect x="119" y="63" width="29" height="4"/><rect x="119" y="70" width="29" height="4"/><rect x="119" y="77" width="29" height="4"/><rect x="119" y="84" width="29" height="4"/><rect x="119" y="91" width="29" height="4"/><rect x="119" y="98" width="29" height="4"/><rect y="49" width="34" height="4"/><rect x="46" y="98" width="26" height="4"/><rect x="26" y="91" width="65" height="4"/><rect x="16" y="84" width="83" height="4"/><rect x="10" y="77" width="38" height="4"/><rect x="69" y="77" width="36" height="4"/><rect x="5" y="70" width="37" height="4"/><rect x="75" y="70" width="34" height="4"/><rect x="3" y="63" width="35" height="4"/><rect x="79" y="63" width="32" height="4"/><rect x="1" y="56" width="35" height="4"/><rect x="46" width="26" height="4"/><rect x="26" y="7" width="65" height="4"/><rect x="16" y="14" width="83" height="4"/><rect x="10" y="21" width="38" height="4"/><rect x="69" y="21" width="36" height="4"/><rect x="5" y="28" width="37" height="4"/><rect x="75" y="28" width="34" height="4"/><rect x="3" y="35" width="35" height="4"/><rect x="79" y="35" width="32" height="4"/><rect x="1" y="42" width="35" height="4"/></g></svg>